<?xml version="1.0" encoding="UTF-8"?>
<svg width="64px" height="64px" viewBox="0 0 64 64" version="1.1" xmlns="http://www.w3.org/2000/svg" xmlns:xlink="http://www.w3.org/1999/xlink">
    <title>Goldman Sachs</title>
    <g id="logo-40-px" stroke="none" stroke-width="1" fill="none" fill-rule="evenodd">
        <g id="64-px" transform="translate(-380.000000, -339.000000)" fill-rule="nonzero">
            <g id="GS_40" transform="translate(380.000000, 339.000000)">
                <rect id="Rectangle" fill="#7399C6" x="0" y="0" width="63.8389937" height="63.8389937"></rect>
                <path d="M7.76855346,8.97610063 L11.2704403,8.97610063 L11.2704403,14.5710692 C10.0628931,14.772327 8.77484277,14.8930818 8.01006289,14.8930818 C4.54842767,14.8930818 3.09937107,12.7597484 3.09937107,9.17735849 C3.09937107,5.35345912 4.9509434,3.22012579 8.57358491,3.22012579 C9.05660377,3.22012579 10.0226415,3.26037736 11.1496855,3.50188679 L11.1496855,6.96352201 L10.3446541,6.96352201 L9.86163522,5.63522013 C9.41886792,4.42767296 8.89559748,3.94465409 8.09056604,3.94465409 C6.60125786,3.94465409 5.83647799,5.83647799 5.83647799,9.17735849 C5.83647799,12.6389937 6.27924528,14.1685535 8.09056604,14.1685535 C8.2918239,14.1685535 8.57358491,14.1685535 8.93584906,14.0880503 L8.93584906,10.1836478 L7.72830189,9.41886792 L7.72830189,8.97610063 L7.76855346,8.97610063 Z M11.0691824,24.1509434 C11.0691824,26.4050314 9.53962264,27.6930818 6.80251572,27.6930818 C6.03773585,27.6930818 4.9509434,27.572327 3.94465409,27.3710692 L3.94465409,23.1044025 L4.74968553,23.1044025 L5.07169811,24.0704403 C5.79622642,26.3245283 6.35974843,27.008805 7.32578616,27.008805 C8.33207547,27.008805 9.0163522,26.2440252 9.0163522,25.1572327 C9.0163522,24.3119497 8.57358491,23.627673 7.60754717,23.1044025 L5.9572327,22.2188679 C4.66918239,21.5345912 3.98490566,20.4880503 3.98490566,19.2 C3.98490566,17.227673 5.55471698,16.0603774 8.21132075,16.0603774 C8.81509434,16.0603774 9.49937107,16.1006289 10.6264151,16.2616352 L10.6264151,19.8037736 L9.82138365,19.8037736 L9.33836478,18.5157233 C8.89559748,17.2679245 8.45283019,16.7849057 7.52704403,16.7849057 C6.60125786,16.7849057 5.99748428,17.3081761 5.99748428,18.1132075 C5.99748428,18.7974843 6.44025157,19.4012579 7.32578616,19.9245283 L9.0163522,20.8503145 C10.4251572,21.6553459 11.0691824,22.7018868 11.0691824,24.1509434 Z M18.5157233,26.7672956 L18.8377358,27.2503145 L18.8377358,27.4918239 L16.3018868,27.4918239 L16.2213836,26.445283 C15.9396226,27.2100629 15.1748428,27.6930818 14.208805,27.6930818 C12.9610063,27.6930818 12.0754717,26.9283019 12.0754717,25.5194969 C12.0754717,24.1106918 12.8402516,23.2654088 15.1345912,22.3396226 L16.1811321,21.8968553 L16.1811321,20.7295597 C16.1811321,19.8440252 15.8993711,19.4415094 15.2553459,19.4415094 C14.6918239,19.4415094 14.3295597,19.8037736 13.9672956,20.6893082 L13.4440252,21.9773585 L12.6792453,21.9773585 L12.6792453,19.3207547 C13.645283,19.0389937 14.6515723,18.8377358 15.4968553,18.8377358 C17.4289308,18.8377358 18.4754717,19.7232704 18.4754717,21.3735849 L18.4754717,26.7672956 L18.5157233,26.7672956 Z M19.6025157,10.4251572 C19.6025157,13.2830189 18.072956,14.8930818 16.1408805,14.8930818 C14.208805,14.8930818 12.6792453,13.3232704 12.6792453,10.4251572 C12.6792453,7.52704403 14.208805,5.9572327 16.1408805,5.9572327 C18.072956,5.9572327 19.6025157,7.5672956 19.6025157,10.4251572 Z M16.2213836,25.2779874 L16.2213836,22.5408805 L15.8591195,22.7018868 C14.8930818,23.1446541 14.4503145,23.8691824 14.4503145,25.1169811 C14.4503145,26.163522 14.7320755,26.6465409 15.2955975,26.6465409 C15.8993711,26.6867925 16.2213836,26.0830189 16.2213836,25.2779874 Z M17.1471698,10.4251572 C17.1471698,7.36603774 16.8654088,6.60125786 16.1006289,6.60125786 C15.3358491,6.60125786 15.0540881,7.36603774 15.0540881,10.4251572 C15.0540881,13.4842767 15.3358491,14.2490566 16.1006289,14.2490566 C16.8654088,14.2490566 17.1471698,13.5245283 17.1471698,10.4251572 Z M25.2779874,25.3987421 L25.8012579,25.6805031 C25.318239,27.0490566 24.5937107,27.7333333 23.1446541,27.7333333 C21.0113208,27.7333333 19.8842767,26.0830189 19.8842767,23.3459119 C19.8842767,20.3672956 21.2125786,18.8377358 23.5874214,18.8377358 C24.191195,18.8377358 25.0767296,18.918239 25.7610063,19.2 L25.7610063,22.0176101 L24.9559748,22.0176101 L24.6339623,20.9308176 C24.2716981,19.7232704 23.9496855,19.4415094 23.5069182,19.4415094 C22.8226415,19.4415094 22.2993711,20.2867925 22.2993711,23.3861635 C22.2993711,25.9220126 22.6616352,26.8477987 23.7081761,26.8477987 C24.3522013,26.8075472 24.7949686,26.445283 25.2779874,25.3987421 Z M23.7081761,14.6918239 L20.7295597,14.6918239 L20.7295597,14.4503145 L21.0515723,13.9672956 L21.0515723,4.70943396 L20.7295597,4.22641509 L20.7295597,3.98490566 L23.3459119,3.7836478 L23.3459119,13.9672956 L23.6679245,14.4503145 L23.6679245,14.6918239 L23.7081761,14.6918239 Z M27.8540881,14.8930818 C25.9220126,14.8930818 24.8754717,13.3232704 24.8754717,10.3446541 C24.8754717,7.44654088 26.0427673,5.9572327 27.8943396,5.9572327 C28.7396226,5.9572327 29.2628931,6.35974843 29.4641509,7.00377358 L29.4641509,4.70943396 L29.1421384,4.22641509 L29.1421384,3.98490566 L31.7987421,3.7836478 L31.7987421,13.9672956 L32.1207547,14.4503145 L32.1207547,14.6918239 L29.7861635,14.6918239 L29.5849057,13.4842767 C29.3433962,14.4503145 28.8201258,14.8930818 27.8540881,14.8930818 Z M33.6503145,26.7672956 L33.972327,27.2503145 L33.972327,27.4918239 L30.9937107,27.4918239 L30.9937107,27.2503145 L31.3157233,26.7672956 L31.3157233,20.7295597 C31.3157233,20.1257862 31.0339623,19.7232704 30.5509434,19.7232704 C29.9069182,19.7232704 29.4641509,20.327044 29.4641509,21.172327 L29.4641509,26.7672956 L29.7861635,27.2503145 L29.7861635,27.4918239 L26.8075472,27.4918239 L26.8075472,27.2503145 L27.1295597,26.7672956 L27.1295597,17.509434 L26.8075472,17.0264151 L26.8075472,16.7849057 L29.4641509,16.5836478 L29.4641509,19.8842767 C29.8264151,19.1194969 30.6716981,18.7974843 31.436478,18.7974843 C32.845283,18.7974843 33.6503145,19.6427673 33.6503145,21.3333333 L33.6503145,26.7672956 L33.6503145,26.7672956 Z M27.290566,10.3849057 C27.290566,13.2830189 27.572327,14.208805 28.3773585,14.208805 C29.2628931,14.208805 29.4641509,12.9610063 29.4641509,10.3446541 C29.4641509,7.8490566 29.2628931,6.64150943 28.3773585,6.64150943 C27.6125786,6.64150943 27.290566,7.5672956 27.290566,10.3849057 Z M44.1962264,13.9672956 L44.518239,14.4503145 L44.518239,14.6918239 L41.5396226,14.6918239 L41.5396226,14.4503145 L41.8616352,13.9672956 L41.8616352,7.88930818 C41.8616352,7.32578616 41.6201258,6.88301887 41.0968553,6.88301887 C40.4528302,6.88301887 40.090566,7.52704403 40.090566,8.37232704 L40.090566,13.9672956 L40.4125786,14.4503145 L40.4125786,14.6918239 L37.4339623,14.6918239 L37.4339623,14.4503145 L37.7559748,13.9672956 L37.7559748,7.88930818 C37.7559748,7.32578616 37.5144654,6.88301887 36.991195,6.88301887 C36.3471698,6.88301887 35.9446541,7.52704403 35.9446541,8.37232704 L35.9446541,13.9672956 L36.2666667,14.4503145 L36.2666667,14.6918239 L33.2880503,14.6918239 L33.2880503,14.4503145 L33.6100629,13.9672956 L33.6100629,7.1245283 L33.2880503,6.72201258 L33.2880503,6.48050314 L35.6226415,6.19874214 L35.8238994,6.19874214 L35.9044025,7.20503145 C36.2264151,6.44025157 37.0314465,5.99748428 37.9572327,5.99748428 C38.963522,5.99748428 39.5672956,6.48050314 39.8893082,7.32578616 C40.2515723,6.52075472 41.0163522,5.99748428 42.0628931,5.99748428 C43.391195,5.99748428 44.1157233,6.80251572 44.1157233,8.49308176 L44.1157233,13.9672956 L44.1962264,13.9672956 Z M40.9358491,24.9559748 C40.9358491,26.5257862 40.0100629,27.7333333 37.6754717,27.7333333 C37.1119497,27.7333333 36.3069182,27.6528302 35.0993711,27.4515723 L35.0993711,24.3924528 L35.8238994,24.3924528 L36.0654088,25.036478 C36.6691824,26.6465409 37.0314465,27.0893082 37.9169811,27.0893082 C38.7622642,27.0893082 39.2050314,26.6867925 39.2050314,25.8415094 C39.2050314,25.1572327 38.8427673,24.7144654 38.0377358,24.2716981 L36.5484277,23.4666667 C35.5823899,22.9433962 35.1396226,22.2188679 35.1396226,21.2528302 C35.1396226,19.6830189 36.3069182,18.7974843 38.3194969,18.7974843 C38.9232704,18.7974843 39.6477987,18.8779874 40.4528302,19.0389937 L40.4528302,21.4138365 L39.7685535,21.4138365 L39.4062893,20.5685535 C39.0440252,19.7232704 38.7220126,19.4012579 37.9974843,19.4012579 C37.272956,19.4012579 36.8704403,19.763522 36.8704403,20.327044 C36.8704403,20.8503145 37.1924528,21.172327 37.9974843,21.6150943 L39.4867925,22.4603774 C40.4125786,23.0641509 40.9358491,23.7886792 40.9358491,24.9559748 Z M51.9245283,13.9672956 L52.2465409,14.4503145 L52.2465409,14.6918239 L49.7106918,14.6918239 L49.6301887,13.645283 C49.3484277,14.4100629 48.5836478,14.8930818 47.6176101,14.8930818 C46.3698113,14.8930818 45.4842767,14.1283019 45.4842767,12.7194969 C45.4842767,11.3106918 46.2490566,10.4654088 48.5433962,9.53962264 L49.5899371,9.09685535 L49.5899371,7.92955975 C49.5899371,7.04402516 49.3081761,6.64150943 48.6641509,6.64150943 C48.1006289,6.64150943 47.7383648,7.00377358 47.3761006,7.88930818 L46.8528302,9.17735849 L46.0880503,9.17735849 L46.0880503,6.48050314 C47.0540881,6.19874214 48.0603774,5.99748428 48.9056604,5.99748428 C50.8377358,5.99748428 51.8842767,6.88301887 51.8842767,8.53333333 L51.8842767,13.9672956 L51.9245283,13.9672956 Z M49.5899371,12.4377358 L49.5899371,9.7408805 L49.227673,9.90188679 C48.2616352,10.3446541 47.8188679,11.0691824 47.8188679,12.3169811 C47.8188679,13.363522 48.1006289,13.8465409 48.6641509,13.8465409 C49.3081761,13.8465409 49.5899371,13.2427673 49.5899371,12.4377358 Z M60.5786164,14.4503145 L60.5786164,14.6918239 L57.6,14.6918239 L57.6,14.4503145 L57.9220126,13.9672956 L57.9220126,7.88930818 C57.9220126,7.28553459 57.6402516,6.88301887 57.1572327,6.88301887 C56.5132075,6.88301887 56.0704403,7.48679245 56.0704403,8.33207547 L56.0704403,13.927044 L56.3924528,14.4100629 L56.3924528,14.6515723 L53.4138365,14.6515723 L53.4138365,14.4100629 L53.7358491,13.927044 L53.7358491,7.08427673 L53.4138365,6.68176101 L53.4138365,6.44025157 L55.7484277,6.15849057 L55.9496855,6.15849057 L56.0301887,7.20503145 C56.3522013,6.31949686 57.2377358,5.99748428 58.0830189,5.99748428 C59.4918239,5.99748428 60.2968553,6.8427673 60.2968553,8.53333333 L60.2968553,13.9672956 L60.5786164,14.4503145 Z" id="Shape" fill="#FFFFFF"></path>
            </g>
        </g>
    </g>
</svg>