<svg xmlns="http://www.w3.org/2000/svg" xml:space="preserve" id="think-cell_RGB" x="0" y="0" version="1.1" viewBox="0 0 184 44">
  <style type="text/css">.st0{fill:#D2D6DC;} .st1{fill:#C31F41;} .st2{fill:#231F20;} </style>
  <path d="M154.5 6.8h27.3v.3h-27.3zM154.5 13.6h27.3v.3h-27.3z" class="st0"/>
  <path d="M154.3 0v27.4h27.6V0h-27.6zm27.3.3v26.8h-27V.4l27-.1z" class="st0"/>
  <path d="M154.5 20.4h27.3v.3h-27.3z" class="st0"/>
  <path d="M161.1.2h.3v27.1h-.3zM168 .2h.3v27.1h-.3zM174.8.2h.3v27.1h-.3z" class="st0"/>
  <path d="m154.3 20.4.3.2L175 .3l-.2-.2zM161.2 27.2l.2.2 20.5-20.3-.2-.2z" class="st0"/>
  <path fill="#c31f41" d="m161.3 13.8-6.8 6.8v-17c0-1.8 1.4-3.3 3.2-3.3h3.6v13.5z"/>
  <path d="M161.3.1h13.6v.2h-13.6z" class="st2"/>
  <path d="M157.9.1c-1.9-.1-3.5 1.4-3.5 3.3v17.5l7.1-7V.1h-3.6zm-3.3 3.5c-.1-1.7 1.3-3.2 3-3.2H161.2v13.4l-6.6 6.5V3.6zM181.6 7h.2v13.6h-.2z" class="st2"/>
  <path d="m168.1 20.5-6.9 6.8h17.2c1.8 0 3.3-1.4 3.4-3.2v-3.6h-13.7z" class="st0"/>
  <path d="m168.1 20.4-7.1 7.1h17.5c1.9.1 3.4-1.4 3.5-3.3v-3.7h-13.9zm13.5.2v3.3c.1 1.7-1.2 3.2-3 3.3h-17.2l6.6-6.6h13.6zM2.8 16.8H0V14h2.8V7h3.4v7h4.5v2.8H6.2v25.4H2.8zM13.7 0H17v16.6c1-1.9 3.1-3.1 5.2-3 1.7-.1 3.3.7 4.2 2.1.9 1.4 1.3 3.7 1.3 6.9v19.6h-3.3V22.1c.1-1.6-.1-3.1-.8-4.6-.6-.9-1.6-1.4-2.7-1.2-1.3 0-2.4.7-3 1.8-.8 1.6-1.1 3.5-1 5.3v18.8h-3.3V0zM35.5 3.3c.6 0 1.1.2 1.5.6.4.4.6 1 .6 1.5 0 .6-.2 1.1-.6 1.5-.4.4-.9.7-1.5.6-.6 0-1.1-.2-1.5-.7-.4-.4-.6-1-.6-1.5 0-.6.2-1.1.6-1.5.4-.3.9-.5 1.5-.5M33.8 14h3.4v28.2h-3.4V14zM43.7 14H47v2.6c.5-.9 1.3-1.7 2.2-2.2.9-.5 2-.8 3-.7 1.7-.1 3.3.7 4.2 2.1.9 1.4 1.3 3.7 1.3 6.9v19.6h-3.3V22.1c0-2.2-.3-3.7-.8-4.6-.6-.9-1.6-1.3-2.6-1.2-1.3 0-2.4.7-3 1.8-.8 1.6-1.1 3.5-1 5.3v18.8h-3.4V14zM64 .1h3.3v42.2H64V.1M74.3 14H78l-7.3 12.3 9.7 16h-4l-9.1-15.8 7-12.5zM80.8 26.1h10.9v2.8H80.8zM108.6 14.7v4.1c-.4-.6-1-1.1-1.6-1.5-.5-.3-1.1-.5-1.8-.5-1.7 0-3 1-3.8 2.9s-1.2 4.9-1.2 9.1c-.1 2.7.3 5.3 1.2 7.8.5 1.6 2 2.6 3.7 2.7.7 0 1.3-.2 1.9-.5.6-.4 1.1-.9 1.5-1.6v4.1c-.6.4-1.2.8-1.9 1-.7.2-1.4.3-2.1.3-2.4 0-4.3-1.2-5.7-3.7s-2.1-5.9-2.1-10.3c0-5 .7-8.7 2.1-11.2 1.2-2.4 3.6-3.8 6.3-3.8.6 0 1.2.1 1.8.3.7.2 1.2.4 1.7.8zM126.4 29h-11.9v1c-.1 2.5.3 4.9 1.2 7.2.8 1.7 1.9 2.6 3.3 2.6 1.2 0 2.3-.7 2.8-1.8.8-1.5 1.2-3.3 1.2-5h3.2c0 2.5-.7 5-2.1 7.2-2 2.8-6 3.5-8.8 1.4-.9-.6-1.6-1.5-2-2.4-1.3-2.4-1.9-6-1.9-10.8s.7-8.4 2-11 3.3-3.9 5.7-3.9 4.3 1.2 5.5 3.7 1.9 6.1 1.9 10.9l-.1.9m-3.2-2.8c.1-2.4-.3-4.8-1.1-7-.7-1.7-1.7-2.5-3-2.5s-2.4.8-3.2 2.5c-.9 2.2-1.4 4.7-1.4 7.1l8.7-.1zM130.9.1h3.4v42.2h-3.4zM140.8.1h3.4v42.2h-3.4z" class="st2"/>
  <path d="M35.6 3.3c1.1 0 2 .9 2 2v.1c0 1.1-.9 2-2 2s-2-.9-2-2 .9-2 2-2.1z" class="st2"/>
</svg>